#!OML:ASF F:\VICON\USERDATA\INSTALL\rory3\rory3.ASF
:FULLY-SPECIFIED
:DEGREES
54
root 0.49446492377549855 17.734839542396404 23.029607788195406 -1.9889299910349036 -3.9989357316201914 -4.663360321787231
lfemur -22.787707001503108 -3.4682103028749562 -15.373148972359981
ltibia 25.04532374318542
lfoot -1.0737205216865995 -1.1792432578064533
ltoes -1.5491705112055334
rfemur 13.542093608740913 5.514770386289341 30.408241088230866
rtibia 39.9114404119558
rfoot -2.2354689929668625 3.0624446563068872
rtoes -2.0132277494675814
lowerback 8.729762973263247 3.1541515433346707 5.747955282915416
upperback 0.15669190731119728 4.808958728109085 1.12129531164382
thorax -4.564362903414103 2.2701418670594 -2.0981354967994292
lowerneck -16.66592818267734 -3.3131705803926126 -1.5102009097804163
upperneck 20.845138247354598 -4.444568886884694 1.5276638321034355
head 9.392678933026517 -2.0513653249091153 0.18207190621841154
lclavicle -6.527653137537471e-16 2.104563244565051e-15
lhumerus -39.21746552842871 8.665666116361178 81.7805702268381
lradius 18.63582215731347
lwrist -1.10484454317859
lhand -25.03259739644696 23.9779588230673
lfingers 7.12502
lthumb 1.4801040967607728 53.94920224545477
rclavicle -6.527653137537471e-16 2.104563244565051e-15
rhumerus -23.639196974386255 -12.513082416798117 -81.46889876900552
rradius 29.569306350525167
rwrist 2.1519859746408603
rhand -18.512004900661704 24.090008570242304
rfingers 7.12502
rthumb 7.776070003937862 -5.752800223366593
55
root 0.611200066925174 17.796005197664545 24.395602304470334 -2.6673659309235096 -4.042635071691848 -3.1384249800434683
lfemur -20.743358269826615 -3.1530904804527378 -18.165765325891748
ltibia 28.074422353923477
lfoot -2.1894067676253104 -1.8465545503864296
ltoes -0.018176815991107986
rfemur 8.837511262780776 4.348801685363873 27.38209711559903
rtibia 50.25612654250065
rfoot 9.369734281633544 3.9716656412542175
rtoes 4.69919457710105
lowerback 8.95305415836071 3.13917512309346 4.372432310417872
upperback 0.1354778955898951 4.631908224518387 0.715326416220855
thorax -4.716733344067235 2.2064084155404924 -1.7734060154403055
lowerneck -16.5872945623576 -3.2930195541590495 -1.5877015210245327
upperneck 20.96986435613772 -4.425049528773368 1.593104302746204
head 9.430449336831991 -2.038917283731104 0.21851635126657365
lclavicle -8.063910131126474e-16 1.9629795459320734e-15
lhumerus -39.247236058815446 8.806780137227527 81.51142225972778
lradius 18.64139610436286
lwrist -0.36008978558800386
lhand -24.566557602698104 24.70085642000748
lfingers 7.12502
lthumb 1.9302435511656213 54.670638405763704
rclavicle -8.063910131126474e-16 1.9629795459320734e-15
rhumerus -24.77515215954561 -14.121973138243128 -81.15289663861893
rradius 28.95687014496879
rwrist 2.9286806660891713
rhand -18.22705536654177 23.595313140613978
rfingers 7.12502
rthumb 8.051099123261958 -6.236221159163368
56
root 0.7027221712832883 17.86276681929865 25.32141032524446 -3.2266021081206917 -4.4472920158610965 -1.624934945209782
lfemur -17.80572824105477 -3.1069662562789877 -20.592299077254317
ltibia 29.2558926362403
lfoot -4.304806844727949 -0.6628897728652998
ltoes 1.4078294891559984
rfemur 2.645846026800843 3.2557042242846483 24.63758107621073
rtibia 60.85382941380453
rfoot 16.343679333019946 1.8742184657673686
rtoes 10.703195708323866
lowerback 9.350481422980375 3.0798715665740564 2.9219207373867917
upperback 0.2051399121771375 4.395679426000454 0.39811087952919477
thorax -4.876907012776628 2.1156368235516303 -1.3030730503957608
lowerneck -16.63107400247572 -3.1721343522467893 -1.6242906446482734
upperneck 20.94996811849161 -4.2489808249457095 1.572014198995916
head 9.43400558305372 -1.964026623398477 0.24405793159127961
lclavicle -8.478548698460823e-16 1.9247586625666666e-15
lhumerus -38.66844200743698 8.162328811433396 81.74066472841088
lradius 19.282924193983526
lwrist 1.338732244322324
lhand -24.977945997970053 24.88099202983545
lfingers 7.12502
lthumb 1.5329446297994391 54.84814265579015
rclavicle -8.478548698460823e-16 1.9247586625666666e-15
rhumerus -25.527701230512005 -15.442864533891125 -80.89716455529907
rradius 28.014751474287934
rwrist 4.205820506327811
rhand -17.89556052022464 23.075352574647027
rfingers 7.12502
rthumb 8.371043485725929 -6.743619820232153
57
root 0.7580291950757727 17.91756319085495 25.313190589207736 -3.6728610633309957 -4.834856870714683 -0.46632551549827017
lfemur -14.929895861357839 -3.249482162936545 -22.699121210395397
ltibia 28.70077431619041
lfoot -6.855993007259006 0.9698931748143722
ltoes 1.9719412523487825
rfemur -4.210629979270854 2.1055699485446238 22.442805803641754
rtibia 69.07062794347968
rfoot 15.806967003517695 -2.2971451888083303
rtoes 13.106047896459268
lowerback 9.700981553821489 2.84738349710841 1.546295233407034
upperback 0.3469679722963029 3.941404103276531 0.2028038983772691
thorax -4.975708674907455 1.9183795396132561 -0.8257380962937882
lowerneck -16.681175292987103 -2.998247458353824 -1.64884904090506
upperneck 20.831860260939642 -3.9823447415089004 1.4401685960771164
head 9.398117253185378 -1.8571918194563044 0.24343350153529092
lclavicle -1.2911586611568137e-15 1.5165899440885535e-15
lhumerus -37.72429262914831 6.980744052015498 82.18754996701662
lradius 19.954603442294918
lwrist 2.859349829857538
lhand -26.03925714508579 24.022456709707615
lfingers 7.12502
lthumb 0.5079233528814788 53.98680341971393
rclavicle -1.2911586611568137e-15 1.5165899440885535e-15
rhumerus -25.998365196953582 -16.831842391551362 -80.74645133275956
rradius 26.81921412897753
rwrist 5.677094250017687
rhand -17.62375718145332 22.40611714147693
rfingers 7.12502
rthumb 8.633378405193513 -7.400974972024265
